<?xml version="1.0" encoding="UTF-8" standalone="no"?>
<svg width="1276px" height="1274px" viewBox="0 0 1276 1274" version="1.1" xmlns="http://www.w3.org/2000/svg" xmlns:xlink="http://www.w3.org/1999/xlink" xmlns:sketch="http://www.bohemiancoding.com/sketch/ns">
    <title>logo_white</title>
    <description>Created with Sketch (http://www.bohemiancoding.com/sketch)</description>
    <defs></defs>
    <g id="Page 1" stroke="none" stroke-width="1" fill="none" fill-rule="evenodd">
        <g id="Slice 1" transform="translate(0.000000, -1.000000)" fill="#FAFAFA">
            <g id="Page 1">
                <g id="svg3039">
                    <path d="M599.35061,1274.3235 C367.327918,1259.78688 164.031108,1123.27835 62.751302,914.010977 C9.5454973,804.075585 -10.4706577,679.712814 5.17389935,556.276362 C15.3843811,475.714656 42.435664,394.618336 82.7053782,323.846249 C126.531073,246.824636 185.793565,180.02078 258.10423,126.127223 C386.802769,30.207464 549.118416,-13.2316838 710.269663,5.11805389 C730.467884,7.41795505 765.885516,13.293926 768.622956,14.799168 C769.841993,15.4694861 767.829559,16.3518064 762.778747,17.3614685 C745.966336,20.7222872 712.381916,29.7476692 691.506247,36.5150395 C619.755859,59.7747143 553.281518,94.0915402 494.683301,138.123253 C479.831388,149.283248 479.672062,149.36221 466.111615,152.283921 C378.045729,171.258438 294.96555,211.155599 225.850537,267.663229 C198.979982,289.632277 163.782963,326.318851 142.324575,354.724044 C131.823731,368.624352 114.53099,394.069619 113.201757,397.57647 C112.736558,398.803831 119.336618,393.298899 127.868656,385.343283 C204.430123,313.95414 285.421776,264.950419 375.796293,235.335524 C386.480545,231.8344 395.910215,229.135367 396.751105,229.337698 C397.591996,229.540016 393.654441,235.548776 388.000961,242.690483 C374.99213,259.123812 357.498465,284.866109 345.472305,305.27233 C334.074747,324.611918 312.925128,367.909519 303.813059,390.557379 C287.378443,431.405192 273.40342,480.986509 266.078588,524.433657 C263.914075,537.272421 261.720666,548.132556 261.204349,548.567291 C260.688046,549.002026 254.447756,553.36374 247.337055,558.259965 C207.238083,585.871 165.224963,627.254364 136.640251,667.297449 C119.43545,691.398907 102.203996,722.084837 90.9283096,748.701474 C83.2708379,766.777213 76.3499962,786.331584 76.7940262,788.636954 C77.0081839,789.748697 79.6804158,786.635886 82.8803149,781.547082 C113.412928,732.991834 157.108708,684.295752 203.122228,647.545421 C218.551666,635.222159 249.882611,613.273147 254.660745,611.43991 C256.392033,610.775666 256.733828,615.036071 257.391743,645.481507 C259.25776,731.831774 276.51415,809.420478 311.090007,886.921221 L316.962723,900.084739 L308.577673,912.24182 C286.414837,944.374699 268.414973,982.379438 257.812565,1019.42681 C250.496486,1044.99096 250.822554,1045.35226 262.285099,1024.38282 C273.783943,1003.347 281.773925,990.39033 293.91432,973.092375 C306.561356,955.072548 330.220959,926.341485 331.339411,927.645146 C331.645764,928.002231 334.716039,933.261125 338.162239,939.331576 C377.335969,1008.33584 437.477655,1073.89217 504.121672,1120.23257 C520.179687,1131.39838 549.080429,1149.51414 551.009823,1149.62332 C551.631984,1149.65851 543.410611,1140.71701 532.740099,1129.75331 C497.94472,1094.00186 472.88726,1063.2881 447.304484,1025.03206 C420.141096,984.412422 399.473844,945.722534 382.887967,904.441933 L375.333198,885.638818 L382.735044,879.833726 C403.925703,863.214402 439.892196,842.099853 466.111615,830.886528 C485.606089,822.549286 526.665746,809.482351 533.369027,809.482351 C534.029968,809.482351 534.973535,814.887325 535.465851,821.493404 C541.307722,899.881732 571.916258,983.798002 618.468847,1049.05417 C632.564377,1068.81291 664.336989,1105.72536 662.058565,1099.69537 C661.788706,1098.9812 655.680755,1086.71045 648.485326,1072.42703 C619.114476,1014.12392 600.828039,955.555769 592.739836,893.884347 C589.911096,872.315612 587.61388,825.028082 588.750007,811.754712 L589.722523,800.392905 L616.091943,800.392905 C663.374356,800.392905 698.306958,805.884099 741.438775,820.096655 C756.674484,825.117042 786.317103,837.171646 788.55237,839.256077 C789.107479,839.773734 787.846337,846.871877 785.749812,855.029745 C770.261062,915.298913 770.190542,978.635612 785.545498,1038.54519 C788.308212,1049.32432 792.406872,1063.11035 794.653632,1069.1808 C800.318424,1084.48631 810.549633,1108.28938 811.188873,1107.65024 C811.479823,1107.35934 810.553153,1101.06808 809.129581,1093.66966 C795.750474,1024.13678 800.417243,948.912306 821.946074,887.078079 C828.95176,866.956643 830.156901,864.019025 831.405964,864.019025 C833.187123,864.019025 846.979481,873.753588 860.834139,884.789266 C933.422587,942.608256 982.906189,1025.90163 1002.3929,1123.06823 C1004.54129,1133.78079 1006.68178,1145.84315 1007.14954,1149.87346 L1008,1157.20129 L989.330818,1169.53714 C900.130104,1228.47738 800.986638,1263.0757 692.737037,1273.04007 C672.172059,1274.93314 620.4308,1275.6442 599.35061,1274.3235 L599.35061,1274.3235 L599.35061,1274.3235 Z M1019.13439,1135.35151 C1020.11985,1121.19996 1018.19868,1087.86835 1015.27934,1068.46791 C1003.1921,988.1418 965.253113,913.234915 907.419229,855.508438 C895.886933,843.997575 879.698195,830.086119 861.263688,815.845674 L857,812.552021 L866.310364,798.700928 C885.601357,770.001588 912.899665,739.796118 939.165002,718.087564 L951.370033,708 L961.259814,718.703877 C1048.71645,813.359643 1096.83137,926.615639 1105.12592,1057.34511 L1106,1071.12131 L1089.91274,1087.21526 C1067.35712,1109.78028 1022.90063,1148 1019.20905,1148 C1018.68355,1148 1018.64997,1142.30818 1019.13444,1135.35151 L1019.13439,1135.35151 L1019.13439,1135.35151 Z M1116.77119,1055.03002 C1122.10512,1021.91435 1124.01448,977.07612 1121.40762,946.15137 C1113.62633,853.843383 1079.05611,766.624649 1019.13874,688.132709 L1007,672.230912 L1021.4478,664.983922 C1055.17911,648.064336 1092.82769,635.373503 1130.84147,628.108792 C1138.58206,626.629509 1145.39615,625.716431 1145.9839,626.079737 C1147.65184,627.110751 1161.12658,669.025975 1166.80632,690.851078 C1188.68977,774.940822 1195.02553,860.792453 1186.07769,951.984567 L1184.56631,967.387831 L1174.89786,982.514455 C1159.67578,1006.32992 1134.64037,1039.76191 1120.76454,1054.80342 L1115.97068,1060 L1116.77119,1055.03002 L1116.77119,1055.03002 Z M1206.00205,926.848893 C1205.93969,926.014335 1207.30715,918.719249 1209.04085,910.637592 C1229.09155,817.170219 1228.64278,721.425522 1207.69844,624.24226 L1206.99968,621 L1220.32285,621.362913 C1233.44953,621.720482 1266.84584,624.951278 1272.89756,626.449059 L1276,627.216904 L1275.13305,654.318348 C1272.61908,732.906664 1258.45759,802.938577 1230.93518,872.8871 C1222.48856,894.354286 1206.20698,929.591884 1206.00205,926.848893 L1206.00205,926.848893 L1206.00205,926.848893 Z M361.888203,844.082802 C342.757953,775.742521 334.460961,706.573288 337.674857,642.224772 C339.181227,612.064378 343.737894,569.458193 345.642676,567.723342 C346.857158,566.617205 383.701942,555.173361 396.140452,552.038929 C450.451665,538.352835 506.353379,532.839901 561.215556,535.759485 C577.289011,536.614872 590.682485,537.556621 590.978831,537.85227 C591.275164,538.147918 588.425061,544.961495 584.645282,552.993527 C570.275636,583.528994 559.236675,614.066056 550.85533,646.466546 C542.132934,680.185429 538.430985,702.771894 534.55248,745.933695 L533.78951,754.424388 L517.945631,759.309114 C464.421534,775.810809 414.184212,803.655958 372.501423,839.92477 C368.02916,843.816144 363.995348,847 363.537392,847 C363.079435,847 362.33727,845.687261 361.888151,844.082802 L361.888203,844.082802 L361.888203,844.082802 Z M799.520018,779.514552 C776.465301,767.688606 738.908322,755.295494 707.621168,749.189619 C678.886323,743.581835 662.811836,742.140317 628.772494,742.118684 C604.63513,742.103381 596,741.698212 596,740.58113 C596,737.268816 602.776547,706.084211 606.53012,692.123171 C611.644823,673.099557 623.099296,639.794435 630.592724,622.15853 C642.086368,595.108092 664.565937,552.454464 668.028244,551.126879 C672.230392,549.515622 718.394843,563.551973 750.149339,576.09589 C799.784534,595.703193 845.236738,620.961661 887.053013,652.17533 L901,662.586021 L885.013058,678.969991 C857.896331,706.760136 836.522902,735.754412 819.242336,768.191756 C814.60227,776.901611 810.221788,784.015318 809.507932,783.999975 C808.794075,783.984672 804.299519,781.966196 799.520018,779.514552 L799.520018,779.514552 L799.520018,779.514552 Z M950.175647,613.33889 C927.539601,592.437354 882.494285,560.140073 850.729513,542.036484 C817.442174,523.065129 776.566225,505.356044 736.983934,492.757365 C725.186892,489.002473 715.310461,485.753074 715.036315,485.536473 C713.938988,484.669499 737.928919,458.581606 757.338633,439.534767 C791.372663,406.136984 820.194843,383.752189 861.779083,358.420918 C876.927511,349.193166 918.506681,327.981488 921.410222,328.000012 C926.289037,328.031166 967.830664,362.78798 993.723955,388.50315 C1041.25555,435.707765 1079.53801,487.283778 1111.93643,547.764797 C1116.06991,555.481147 1119.24199,561.982062 1118.98547,562.21128 C1118.72897,562.440498 1112.66933,563.603581 1105.51961,564.79591 C1059.83567,572.414423 1012.54678,589.658905 969.547156,614.379978 C964.114603,617.503229 959.142296,620.032093 958.497586,619.999692 C957.852863,619.96724 954.107994,616.969918 950.175647,613.33889 L950.175647,613.33889 L950.175647,613.33889 Z M1268.56806,571.170464 C1267.2868,569.887281 1228.42498,562.736152 1215.50289,561.405716 C1208.00498,560.633744 1198.88075,559.69207 1195.22685,559.313112 L1188.58337,558.624086 L1183.7222,545.367993 C1158.74293,477.251084 1122.0891,413.755593 1075.48722,357.872368 C1070.11975,351.435907 1054.4286,334.819826 1040.61798,320.947731 C1026.80737,307.07565 1015.7315,295.501684 1016.00496,295.227829 C1016.99834,294.232947 1049.24623,288.343221 1064.34319,286.399384 C1096.62642,282.242679 1133.4974,280.88993 1158.35293,282.950274 L1168.06748,283.755546 L1177.47956,298.695482 C1221.58212,368.700003 1252.39147,449.686206 1266.03018,531.461766 C1271.8279,566.223972 1272.38859,574.996739 1268.56806,571.170464 L1268.56806,571.170464 L1268.56806,571.170464 Z M361.404476,492.952106 C361.913329,490.633792 365.176631,480.095886 368.656253,469.534531 C399.345991,376.385092 453.569314,287.795215 520.432226,221.563504 L536.144053,206 L565.669483,206.204686 C637.437807,206.702238 708.476982,220.53866 777.735278,247.509097 C798.583375,255.627734 826.156975,268.146304 841.176837,276.311917 L852,282.195985 L834.806971,291.192831 C764.620993,327.920068 703.693502,378.205672 653.695163,440.670768 C646.878301,449.187377 639.404435,458.947055 637.086576,462.358952 C633.321983,467.900441 632.456377,468.493864 628.974625,467.920142 C605.885828,464.115604 545.217817,462.361753 515.292903,464.6337 C488.029505,466.703582 461.743238,470.455463 436.069631,475.941364 C415.78937,480.274827 377.837617,490.964633 367.656425,495.211213 C361.002433,497.986588 360.351121,497.751229 361.404476,492.952106 L361.404476,492.952106 L361.404476,492.952106 Z M938.225651,238.39359 C848.146657,181.307233 736.892239,144.734529 637.010353,139.374982 C624.464978,138.701808 621.955121,138.244406 623.340883,136.883872 C631.738761,128.638853 702.744742,91.6958231 732.789802,79.9397169 C769.087642,65.7370147 810.545518,53.7452892 848.88678,46.3585765 L866.31975,43 L877.497227,47.464486 C946.673925,75.0949649 1016.69254,119.916497 1072.36728,172.208119 C1094.8171,193.293764 1129.40387,230.159259 1127.95597,231.459227 C1127.6754,231.711132 1122.18808,231.447567 1115.76194,230.872802 C1073.9613,227.136214 1015.18815,231.52197 968.944326,241.828603 L950.228114,246 L938.225651,238.39359 L938.225651,238.39359 Z M938.225651,238.39359" id="path3068"></path>
                </g>
            </g>
        </g>
    </g>
</svg>