<?xml version="1.0" encoding="UTF-8" standalone="no"?>
<svg width="6450px" height="1199px" viewBox="0 0 6450 1199" version="1.1" xmlns="http://www.w3.org/2000/svg" xmlns:xlink="http://www.w3.org/1999/xlink" xmlns:sketch="http://www.bohemiancoding.com/sketch/ns">
    <title>logo_text_blue_big</title>
    <description>Created with Sketch (http://www.bohemiancoding.com/sketch)</description>
    <defs></defs>
    <g id="Page 1" stroke="none" stroke-width="1" fill="none" fill-rule="evenodd">
        <g id="Slice 1" transform="translate(4.000000, 0.000000)" fill="#3D9BD7">
            <g id="Page 1">
                <g id="svg3039">
                    <path d="M564.269572,1198.36333 C345.827574,1184.68247 154.430081,1056.21016 59.0783587,859.262294 C8.98678267,755.798765 -9.85779185,638.757194 4.87106198,522.587409 C14.4839064,446.768346 39.9518305,370.446142 77.864488,303.840387 C119.124988,231.353013 174.918743,168.48188 242.996939,117.761021 C364.162528,27.4880293 516.977556,-13.3938688 668.696339,3.8756253 C687.712323,6.04013197 721.056899,11.5701863 723.634112,12.9868151 C724.781797,13.6176718 722.887154,14.4480502 718.131975,15.3982738 C702.303624,18.5612421 670.684959,27.0553025 651.031179,33.4242798 C583.480466,55.3146645 520.896985,87.6112691 465.728624,129.050848 C451.746019,139.553858 451.596019,139.628171 438.829288,142.377882 C355.918052,160.235375 277.700701,197.783802 212.631111,250.964844 C187.333336,271.640581 154.19646,306.167428 133.994069,332.900415 C124.107858,345.982416 107.827291,369.929728 106.575861,373.230132 C106.13789,374.385238 112.351637,369.20438 120.38428,361.717109 C192.464471,294.530623 268.715541,248.411737 353.80028,220.540262 C363.859164,217.245248 372.736899,214.705106 373.52857,214.895526 C374.320242,215.085934 370.613159,220.74096 365.290587,227.462237 C353.043186,242.92814 336.573456,267.154996 325.251208,286.359909 C314.520769,304.560981 294.609074,345.309665 286.03035,366.624253 C270.557681,405.067367 257.40064,451.729847 250.504544,492.619274 C248.466723,504.702224 246.401698,514.923026 245.915602,515.332168 C245.429519,515.741311 239.554485,519.846252 232.859985,524.454237 C195.108076,550.439819 155.554057,589.386957 128.642459,627.072717 C112.444685,649.75533 96.2218177,678.634788 85.6061169,703.684512 C78.3968504,720.696137 71.8810976,739.099348 72.2991378,741.269002 C72.5007604,742.315297 75.0165819,739.385736 78.0291854,734.596509 C106.774671,688.899694 147.912861,643.070335 191.233129,608.483485 C205.759455,596.88569 235.256545,576.22881 239.755007,574.503495 C241.38496,573.878355 241.706749,577.887951 242.326155,606.541073 C244.082951,687.807926 260.329294,760.829006 292.881366,833.767304 L298.410341,846.155889 L290.516083,857.597286 C269.650476,887.838513 252.704176,923.605924 242.722345,958.472328 C235.834489,982.531524 236.141472,982.871555 246.933094,963.136579 C257.758891,943.339132 265.281205,931.145217 276.711002,914.865588 C288.617785,897.906582 310.89255,870.866908 311.945537,872.093823 C312.233958,872.429887 315.124525,877.379191 318.369013,883.092277 C355.249836,948.03428 411.871324,1009.73133 474.61455,1053.34368 C489.732662,1063.85217 516.941793,1080.90146 518.758256,1081.00421 C519.344001,1081.03733 511.603839,1072.62221 501.557891,1062.30394 C468.799146,1028.65717 445.208343,999.751517 421.122972,963.747599 C395.549504,925.519227 376.091942,889.107001 360.476866,850.256577 L353.364291,832.560395 L360.332894,827.097047 C380.283226,811.456098 414.144538,791.584556 438.829288,781.031356 C457.182717,773.184925 495.83908,760.887237 502.150007,760.887237 C502.772262,760.887237 503.6606,765.974022 504.1241,772.191203 C509.624036,845.964833 538.441001,924.940977 582.268786,986.355534 C595.53928,1004.95108 625.452185,1039.69051 623.307121,1034.0155 C623.053058,1033.34338 617.302616,1021.795 610.528348,1008.35244 C582.876625,953.481618 565.660525,898.361356 558.045738,840.320512 C555.38257,820.021522 553.219814,775.517795 554.289441,763.025824 L555.205034,752.332884 L580.031006,752.332884 C624.545897,752.332884 657.433832,757.500813 698.041069,770.87668 C712.385005,775.601518 740.29259,786.946471 742.397023,788.908192 C742.91964,789.395375 741.732315,796.075652 739.758504,803.753269 C725.176337,860.474409 725.109945,920.082496 739.566148,976.465215 C742.167156,986.609781 746.025914,999.584231 748.141167,1005.29732 C753.474389,1019.70179 763.106748,1042.10359 763.708572,1041.50207 C763.982492,1041.2283 763.110062,1035.3074 761.769814,1028.34452 C749.173809,962.905024 753.567424,892.108992 773.836135,833.914927 C780.431766,814.978034 781.566368,812.213353 782.742321,812.213353 C784.419226,812.213353 797.404293,821.374845 810.448014,831.760856 C878.787733,886.176059 925.374974,964.565977 943.721093,1056.01241 C945.743734,1066.09432 947.758938,1077.44658 948.199319,1081.23962 L949,1088.13607 L931.423558,1099.74571 C847.443917,1155.21615 754.103492,1187.77768 652.189929,1197.15545 C632.828655,1198.93708 584.115902,1199.60628 564.269572,1198.36333 L564.269572,1198.36333 L564.269572,1198.36333 Z M959.367258,1067.09892 C960.293353,1053.7836 958.487916,1022.42158 955.74444,1004.16753 C944.385347,928.587966 908.731841,858.107397 854.381926,803.79203 C843.544347,792.961355 828.330834,779.871939 811.006839,766.472975 L807,763.373947 L815.749499,750.341328 C833.878384,723.337858 859.532215,694.917256 884.215303,674.491481 L895.685091,665 L904.979102,675.071375 C987.167266,764.133846 1032.3837,870.697442 1040.17858,993.70199 L1041,1006.66414 L1025.88185,1021.80709 C1004.685,1043.03872 962.906616,1079 959.43742,1079 C958.943577,1079 958.91202,1073.64451 959.367305,1067.09892 L959.367258,1067.09892 L959.367258,1067.09892 Z M1051.17292,991.327761 C1056.18623,960.195979 1057.98082,918.04391 1055.53066,888.971795 C1048.2171,802.193779 1015.72487,720.200131 959.409089,646.410473 L948,631.461318 L961.579353,624.64848 C993.283098,608.742509 1028.66865,596.811957 1064.39745,589.982459 C1071.67276,588.591797 1078.07726,587.733419 1078.62968,588.07496 C1080.19736,589.044208 1092.86214,628.448382 1098.20048,648.96599 C1118.76853,728.0181 1124.72345,808.726546 1116.31346,894.455538 L1114.89293,908.936025 L1105.80564,923.156446 C1091.49855,945.545178 1067.968,976.97433 1054.92623,991.114736 L1050.42053,996 L1051.17292,991.327761 L1051.17292,991.327761 Z M1135.00193,871.857781 C1134.94314,871.072315 1136.23246,864.206352 1137.86709,856.600086 C1156.77203,768.630794 1156.34891,678.518138 1136.60139,587.051539 L1135.94256,584 L1148.5044,584.341565 C1160.88099,584.678101 1192.36893,587.71885 1198.07484,589.128526 L1201,589.851204 L1200.18259,615.358445 C1197.81228,689.323919 1184.46001,755.236308 1158.51031,821.070212 C1150.54636,841.274622 1135.19515,874.43942 1135.00193,871.857781 L1135.00193,871.857781 L1135.00193,871.857781 Z M340.418427,794.251102 C322.417916,729.853529 314.610904,664.674829 317.635003,604.038727 C319.052414,575.618356 323.339987,535.47022 325.132281,533.835457 C326.275042,532.793135 360.943953,522.009513 372.647905,519.055914 C423.751763,506.159402 476.352195,500.964522 527.97448,503.715668 C543.098715,504.521706 555.701236,505.409124 555.980081,505.687716 C556.258914,505.966307 553.577124,512.386793 550.020561,519.955439 C536.499516,548.729244 526.112462,577.504553 518.226078,608.035784 C510.018784,639.809347 506.535454,661.092746 502.885995,701.764443 L502.168082,709.765289 L487.259865,714.368204 C436.89664,729.917878 389.626089,756.156576 350.404882,790.332956 C346.196729,793.999828 342.401134,797 341.970223,797 C341.539311,797 340.840974,795.762996 340.418378,794.251102 L340.418427,794.251102 L340.418427,794.251102 Z M752.509001,732.784064 C730.81489,721.66869 695.474388,710.020228 666.033689,704.28123 C638.994671,699.010394 623.868842,697.655491 591.83838,697.635158 C569.125516,697.620775 561,697.239951 561,696.189989 C561,693.076699 567.37662,663.765847 570.90867,650.643667 C575.721522,632.763103 586.499993,601.459147 593.551186,584.88291 C604.366517,559.457821 625.519423,519.367072 628.777397,518.119256 C632.731549,516.604812 676.171541,529.797777 706.052001,541.587983 C752.757906,560.017164 795.527685,583.757956 834.876114,613.096126 L848,622.881282 L832.95655,638.280807 C807.440154,664.401158 787.328108,691.653289 771.067378,722.141608 C766.701152,730.328124 762.579191,737.014398 761.907464,736.999977 C761.235736,736.985593 757.006433,735.088399 752.509001,732.784064 L752.509001,732.784064 L752.509001,732.784064 Z M894.204819,576.726694 C872.913488,557.042029 830.544131,526.625069 800.666375,509.575456 C769.356501,491.708598 730.908826,475.030521 693.677958,463.165327 C682.58173,459.629041 673.292017,456.56882 673.034157,456.364829 C672.002018,455.54833 694.566805,430.979252 712.823467,413.041305 C744.835674,381.587913 771.945645,360.506342 811.059535,336.649837 C825.308056,327.959317 864.417177,307.982566 867.14823,308.000011 C871.737215,308.029352 910.811023,340.762653 935.166099,364.980706 C979.874035,409.437108 1015.88229,458.010407 1046.35605,514.970271 C1050.24398,522.237382 1053.22762,528.359819 1052.98634,528.575692 C1052.74507,528.791565 1047.04541,529.886934 1040.32043,531.009847 C997.350386,538.184816 952.870736,554.425339 912.425545,577.707171 C907.315718,580.648589 902.638795,583.030225 902.032385,582.99971 C901.425962,582.969147 897.903561,580.146327 894.204819,576.726694 L894.204819,576.726694 L894.204819,576.726694 Z M1193.71112,536.219092 C1192.50522,535.01113 1155.92939,528.279205 1143.76743,527.02676 C1136.71057,526.300042 1128.12306,525.413569 1124.68409,525.056826 L1118.43141,524.408191 L1113.85619,511.92918 C1090.34629,447.805331 1055.84856,388.031989 1011.98797,335.424677 C1006.93623,329.365526 992.168092,313.723491 979.169861,300.664588 C966.17164,287.605698 955.747291,276.710206 956.004665,276.452404 C956.939611,275.515843 987.290567,269.971377 1001.49947,268.141489 C1031.88369,264.228453 1066.58579,262.955003 1089.97923,264.894568 L1099.12233,265.652634 L1107.98076,279.716781 C1149.48905,345.617589 1178.48609,421.856325 1191.32252,498.838145 C1196.7792,531.562567 1197.30691,539.821068 1193.71112,536.219092 L1193.71112,536.219092 L1193.71112,536.219092 Z M340.380586,463.188581 C340.859385,461.005701 343.929946,451.083411 347.204051,441.139043 C376.081156,353.431324 427.10188,270.0168 490.015659,207.654296 L504.799496,193 L532.581061,193.192728 C600.110523,193.661214 666.953902,206.689322 732.121585,232.084167 C751.738328,239.728519 777.683345,251.515764 791.816087,259.204348 L802,264.744673 L785.822445,273.21593 C719.781871,307.79759 662.452949,355.145547 615.407669,413.961479 C608.993432,421.980554 601.960996,431.170079 599.780037,434.382656 C596.237793,439.600415 595.423312,440.159171 592.147203,439.618965 C570.422103,436.036685 513.337335,434.385293 485.17988,436.524515 C459.526744,438.473476 434.793026,442.006175 410.635783,447.171593 C391.553338,451.251899 355.843134,461.317214 346.263276,465.315712 C340.002289,467.928952 339.389446,467.707343 340.380586,463.188581 L340.380586,463.188581 L340.380586,463.188581 Z M882.499374,223.84323 C797.771607,170.131436 693.126363,135.720665 599.178055,130.677939 C587.37795,130.044558 585.017193,129.614195 586.320633,128.334086 C594.219627,120.576458 661.00743,85.8172523 689.267635,74.7560883 C723.409168,61.3929547 762.404199,50.1100997 798.467763,43.16004 L814.865111,40 L825.378579,44.2005755 C890.44577,70.1977256 956.304863,112.369709 1008.67219,161.570201 C1029.78836,181.409404 1062.32047,216.095657 1060.95858,217.31878 C1060.69468,217.555794 1055.53334,217.307809 1049.48895,216.767021 C1010.17152,213.251315 954.889843,217.377814 911.393177,227.075188 L893.788819,231 L882.499374,223.84323 L882.499374,223.84323 Z M882.499374,223.84323" id="path3068"></path>
                </g>
            </g>
        </g>
        <text id="Scorbit" fill="#3D9BD7" font-family="Helvetica" font-size="1600" font-weight="260" x="1385" y="1199.00324">
            <tspan>Scorbit</tspan>
        </text>
    </g>
</svg>