<?xml version="1.0" encoding="UTF-8" standalone="no"?>
<svg width="3015px" height="700px" viewBox="0 0 3015 700" version="1.1" xmlns="http://www.w3.org/2000/svg" xmlns:xlink="http://www.w3.org/1999/xlink" xmlns:sketch="http://www.bohemiancoding.com/sketch/ns">
    <title>logo_text@2x</title>
    <description>Created with Sketch (http://www.bohemiancoding.com/sketch)</description>
    <defs></defs>
    <g id="Page 1" stroke="none" stroke-width="1" fill="none" fill-rule="evenodd">
        <g id="Slice 1" transform="translate(12.000000, 18.000000)" fill="#3D9BD7">
            <g id="Page 1">
                <g id="svg3039">
                    <path d="M263.576378,587.68777 C161.539774,580.97856 72.1359495,517.974623 27.5961359,421.389682 C4.19782271,370.65027 -4.60468045,313.252068 2.27532537,256.281398 C6.76558826,219.099072 18.6619291,181.670001 36.3713387,149.005961 C55.6445616,113.457524 81.7064238,82.6249755 113.50648,57.751026 C170.104228,13.480368 241.485769,-6.56846944 312.355243,1.90064027 C321.237813,2.96213311 336.813423,5.6741197 338.017266,6.36884678 C338.553362,6.67822437 337.668354,7.08544912 335.447159,7.55144701 C328.053566,9.10259411 313.284148,13.268155 304.103656,16.3915567 C272.549993,27.1267912 243.316577,42.9653263 217.546843,63.2876553 C211.015418,68.4384222 210.945351,68.4748662 204.981874,69.8233482 C166.253145,78.5808176 129.71698,96.9948919 99.3222757,123.075337 C87.5054135,133.214897 72.0268228,150.147162 62.5900689,163.257251 C57.9721135,169.672778 50.3672859,181.416747 49.7827292,183.035294 C49.5781486,183.601768 52.4806566,181.06103 56.2327904,177.389208 C89.9022217,144.440372 125.519916,121.82327 165.263911,108.154857 C169.962524,106.538954 174.109409,105.293246 174.479207,105.38663 C174.849006,105.480007 173.117387,108.253281 170.631157,111.549454 C164.910264,119.134067 157.217076,131.015127 151.928333,140.433383 C146.916029,149.359347 137.615063,169.342855 133.607849,179.795714 C126.380399,198.64855 120.234604,221.532235 117.013363,241.584765 C116.061475,247.510348 115.09688,252.522718 114.869819,252.723365 C114.642765,252.924012 111.898473,254.937111 108.7714,257.196907 C91.137078,269.940462 72.660971,289.040476 60.0902741,307.5219 C52.5241199,318.64565 44.9462446,332.808387 39.9875367,345.092988 C36.6200109,353.435637 33.5764328,362.460731 33.7717038,363.524748 C33.8658839,364.03786 35.0410512,362.601178 36.4482706,360.2525 C49.8755958,337.842385 69.0916861,315.36727 89.3270488,298.405579 C96.1124517,292.71792 109.890859,282.587607 111.992139,281.741497 C112.753507,281.434923 112.903819,283.401264 113.19315,297.453003 C114.013768,337.306973 121.602609,373.117144 136.808032,408.886718 L139.390676,414.962188 L135.703183,420.573148 C125.956634,435.403708 118.040835,452.944356 113.378215,470.043143 C110.160823,481.841982 110.304218,482.008736 115.345101,472.330533 C120.401946,462.621693 123.9157,456.641691 129.254681,448.65802 C134.816467,440.341176 145.221249,427.080686 145.713111,427.682375 C145.847836,427.847184 147.19805,430.274366 148.713585,433.076112 C165.941014,464.924234 192.389519,495.181002 221.697554,516.568879 C228.759387,521.72233 241.469064,530.08345 242.317553,530.13384 C242.591161,530.150082 238.975648,526.023236 234.283078,520.963067 C218.981117,504.462397 207.961599,490.286816 196.711063,472.630182 C184.765422,453.882657 175.676586,436.025785 168.382616,416.9732 L165.060256,408.294839 L168.315365,405.615566 C177.63438,397.945109 193.451362,388.199932 204.981874,383.024552 C213.554958,379.176594 231.61176,373.145701 234.559662,373.145701 C234.850324,373.145701 235.265276,375.640304 235.481782,378.689264 C238.050861,414.868492 251.511575,453.599078 271.984004,483.71731 C278.182794,492.836728 292.155434,509.873243 291.153451,507.090171 C291.034775,506.760554 288.348682,501.097131 285.184349,494.504783 C272.267932,467.595656 264.226107,440.564201 260.669158,412.100468 C259.425164,402.145667 258.414917,380.320654 258.914552,374.194483 L259.342235,368.950572 L270.938713,368.950572 C291.732097,368.950572 307.094405,371.484969 326.062481,378.04461 C332.762688,380.361712 345.79862,385.925375 346.781624,386.88742 C347.025744,387.126339 346.471131,390.402405 345.549143,394.167575 C338.737656,421.984114 338.706644,451.216437 345.459292,478.867011 C346.67425,483.841994 348.476718,490.204777 349.464775,493.006523 C351.95598,500.070605 356.455358,511.056637 356.736477,510.76165 C356.864428,510.627388 356.456906,507.72373 355.830862,504.309074 C349.947133,472.216976 351.999438,437.497988 361.467171,408.959114 C364.548061,399.672297 365.078045,398.316473 365.627346,398.316473 C366.410646,398.316473 372.47611,402.809349 378.568972,407.902738 C410.491189,434.588426 432.25259,473.031522 440.822259,517.877645 C441.767057,522.821903 442.70838,528.389147 442.914087,530.24929 L443.288093,533.631365 L435.077948,539.324834 C395.850156,566.528022 352.249841,582.496477 304.644921,587.095417 C295.601062,587.969142 272.846812,588.297324 263.576378,587.68777 L263.576378,587.68777 L263.576378,587.68777 Z M448.130751,523.314567 C448.56334,516.784617 447.720001,501.404413 446.438494,492.452468 C441.132539,455.387593 424.478404,420.823311 399.090975,394.186584 C394.028625,388.875126 386.92223,382.455964 378.830006,375.884995 L376.958368,374.365205 L381.045353,367.973895 C389.51355,354.73116 401.49673,340.79345 413.026465,330.776473 L418.384127,326.121768 L422.725459,331.060858 C461.116433,374.737866 482.237514,426.997578 485.878585,487.320075 L486.262281,493.676827 L479.200432,501.103058 C469.299157,511.515235 449.784023,529.150959 448.163524,529.150959 C447.932845,529.150959 447.918104,526.524583 448.130773,523.314567 L448.130751,523.314567 L448.130751,523.314567 Z M491.014162,486.155733 C493.355934,470.888437 494.194206,450.216697 493.049708,435.959479 C489.633465,393.402788 474.455996,353.192391 448.150291,317.005303 L442.820983,309.674108 L449.164044,306.333033 C463.973204,298.532607 480.502175,292.68176 497.19148,289.332515 C500.589855,288.650522 503.581466,288.229567 503.839507,288.397061 C504.571788,288.872389 510.487644,308.196538 512.981238,318.258551 C522.588796,357.026391 525.370404,396.606513 521.442006,438.648754 L520.77846,445.750111 L516.533691,452.723929 C509.850695,463.703557 498.859323,479.116686 492.767375,486.051263 L490.662712,488.447039 L491.014162,486.155733 L491.014162,486.155733 Z M530.171594,427.566618 C530.14413,427.181419 530.746385,423.814291 531.509939,420.084112 C540.340642,376.943208 540.142995,332.75118 530.918716,287.895167 L530.610969,286.398666 L536.478742,286.566172 C542.259978,286.731212 556.968337,288.222422 559.633627,288.913739 L561,289.268147 L560.618179,301.777119 C559.51098,338.050429 553.273995,370.374436 541.152611,402.659954 C537.432562,412.568372 530.261849,428.832676 530.171594,427.566618 L530.171594,427.566618 L530.171594,427.566618 Z M159.013104,389.50763 C150.604872,357.926501 146.958132,325.962301 148.370722,296.225831 C149.03281,282.288235 151.035581,262.599241 151.872781,261.797538 C152.406577,261.286375 168.600797,255.997993 174.067839,254.549522 C197.939,248.224961 222.509227,245.677347 246.622551,247.026533 C253.687243,247.421821 259.574016,247.857018 259.704268,247.993642 C259.834514,248.130266 258.581821,251.278928 256.920512,254.990657 C250.604686,269.101581 245.752782,283.213242 242.068967,298.186022 C238.235252,313.768053 236.608151,324.205617 234.90345,344.15137 L234.568105,348.075054 L227.604317,350.332363 C204.079113,357.958058 181.998531,370.825744 163.677884,387.586137 C161.712211,389.384403 159.939248,390.855713 159.737964,390.855713 C159.53668,390.855713 159.21048,390.249076 159.013081,389.50763 L159.013104,389.50763 L159.013104,389.50763 Z M351.505037,359.363661 C341.371485,353.912585 324.863557,348.200079 311.11149,345.385624 C298.481274,342.800761 291.415837,342.136304 276.454064,342.126333 C265.844641,342.119279 262.049126,341.93252 262.049126,341.417609 C262.049126,339.890825 265.027713,325.516529 266.677572,319.081298 C268.925707,310.312514 273.960446,294.960783 277.254134,286.831652 C282.306092,274.362968 292.186841,254.702117 293.708676,254.090177 C295.555703,253.347481 315.846989,259.817425 329.804473,265.599444 C351.621303,274.637275 371.599526,286.279965 389.9796,300.667658 L396.109908,305.466383 L389.082951,313.018444 C377.163969,325.828091 367.769416,339.192772 360.173855,354.144508 C358.134343,358.159247 356.208931,361.438253 355.89516,361.431181 C355.581389,361.424127 353.605836,360.493727 351.505037,359.363661 L351.505037,359.363661 L351.505037,359.363661 Z M417.692675,282.831773 C407.747266,273.178243 387.956084,258.261502 373.999864,249.900224 C359.374685,241.138161 341.415363,232.959088 324.024425,227.140294 C318.841258,225.406069 314.501933,223.905309 314.381484,223.805271 C313.899361,223.404852 324.439615,211.355964 332.967498,202.559038 C347.920743,187.134022 360.584102,176.795437 378.85462,165.096 C385.510258,160.834094 403.778548,151.037322 405.054252,151.045877 C407.197816,151.060266 425.449612,167.112961 436.826129,178.989704 C457.709687,200.791509 474.529529,224.612277 488.764151,252.545888 C490.580243,256.109742 491.973933,259.112238 491.861228,259.218104 C491.748532,259.32397 489.086159,259.861149 485.944846,260.411835 C465.873078,263.930502 445.096156,271.894995 426.203772,283.312608 C423.816917,284.755105 421.632277,285.923079 421.349016,285.908115 C421.065749,285.893126 419.420398,284.508791 417.692675,282.831773 L417.692675,282.831773 L417.692675,282.831773 Z M557.595284,262.966494 C557.031999,262.374099 539.947036,259.072704 534.26605,258.458495 C530.969716,258.102106 526.958398,257.667372 525.352021,257.492422 L522.431323,257.174326 L520.294189,251.05451 C509.312462,219.607618 493.198205,190.294253 472.71045,164.495171 C470.35073,161.523711 463.452373,153.852721 457.380759,147.448522 C451.309151,141.044329 446.439825,135.701085 446.560048,135.574657 C446.996771,135.115359 461.174028,132.396305 467.81116,131.498912 C482.003954,129.579925 498.213677,128.955414 509.141005,129.906594 L513.411848,130.278356 L517.549715,137.175536 C536.938684,169.493863 550.483511,206.882001 556.479547,244.634553 C559.028419,260.682893 559.274918,264.732934 557.595284,262.966494 L557.595284,262.966494 L557.595284,262.966494 Z M158.995428,227.151698 C159.21908,226.081194 160.653372,221.215218 162.182741,216.338413 C175.671548,173.325787 199.503876,132.418581 228.891577,101.835468 L235.797267,94.6488741 L248.774334,94.7433897 C280.318071,94.973139 311.541331,101.362237 341.981856,113.816089 C351.145048,117.564945 363.264244,123.345512 369.865799,127.116061 L374.622814,129.833084 L367.066105,133.987462 C336.217843,150.946608 309.438888,174.166457 287.463532,203.0103 C284.467373,206.942924 281.182447,211.449547 280.163697,213.025022 C278.509077,215.583857 278.128624,215.857875 276.598319,215.592954 C266.450291,213.836173 239.785383,213.026316 226.632733,214.075408 C214.649878,215.031196 203.096493,216.763662 191.812385,219.296828 C182.89877,221.297845 166.21815,226.233963 161.743295,228.194861 C158.818721,229.476417 158.532456,229.367738 158.995428,227.151698 L158.995428,227.151698 L158.995428,227.151698 Z M412.224936,109.774662 C372.647687,83.4339319 323.766769,66.5585914 279.882505,64.0855946 C274.370549,63.7749794 273.267815,63.5639254 273.876665,62.9361492 C277.56637,59.1317407 308.763671,42.0855249 321.964316,36.6610341 C337.912192,30.1076375 356.127191,24.5744275 372.972868,21.166058 L380.632246,19.616347 L385.5432,21.6763456 C415.936783,34.4255735 446.700273,55.10708 471.161615,79.2354278 C481.025204,88.964745 496.221302,105.975185 495.58515,106.575015 C495.461879,106.691249 493.050961,106.569635 490.227562,106.304427 C471.861966,104.580294 446.039302,106.603966 425.721542,111.359642 L417.498358,113.284404 L412.224936,109.774662 L412.224936,109.774662 Z M412.224936,109.774662" id="path3068"></path>
                </g>
            </g>
        </g>
        <text id="Scorbit" fill="#3D9BD7" font-family="Helvetica" font-size="750" font-weight="260" x="647" y="606.00152">
            <tspan>Scorbit</tspan>
        </text>
    </g>
</svg>