<?xml version="1.0" encoding="UTF-8" standalone="no"?>
<svg width="600px" height="300px" viewBox="0 0 600 300" version="1.1" xmlns="http://www.w3.org/2000/svg" xmlns:xlink="http://www.w3.org/1999/xlink" xmlns:sketch="http://www.bohemiancoding.com/sketch/ns">
    <title>playing-area</title>
    <description>Created with Sketch (http://www.bohemiancoding.com/sketch)</description>
    <defs></defs>
    <g id="Page-1" stroke="none" stroke-width="1" fill="none" fill-rule="evenodd" sketch:type="MSPage">
        <rect id="Rectangle-1" fill="#FDFDFD" sketch:type="MSShapeGroup" x="0" y="1" width="600" height="300" rx="60"></rect>
        <path d="M210,1 L210,299" id="Line" stroke-opacity="0.75" stroke="#3A7CFC" stroke-width="2" stroke-linecap="square" sketch:type="MSShapeGroup"></path>
        <path d="M390,1 L390,299" id="Line" stroke-opacity="0.75" stroke="#3A7CFC" stroke-width="2" stroke-linecap="square" sketch:type="MSShapeGroup"></path>
        <path d="M301,1 L301,299" id="Line" stroke="#E74C3C" stroke-width="2" stroke-linecap="square" sketch:type="MSShapeGroup"></path>
        <circle id="Oval-1" stroke="#6C9DFD" stroke-width="2" sketch:type="MSShapeGroup" cx="301" cy="150" r="70"></circle>
        <circle id="Oval-1" stroke="#E74C3C" stroke-width="2" sketch:type="MSShapeGroup" cx="114.5" cy="219.5" r="51.5"></circle>
        <circle id="Oval-1" stroke="#E74C3C" stroke-width="2" sketch:type="MSShapeGroup" cx="114.5" cy="79.5" r="51.5"></circle>
        <circle id="Oval-1" stroke="#E74C3C" stroke-width="2" sketch:type="MSShapeGroup" cx="487.5" cy="219.5" r="51.5"></circle>
        <circle id="Oval-1" stroke="#E74C3C" stroke-width="2" sketch:type="MSShapeGroup" cx="487.5" cy="79.5" r="51.5"></circle>
        <circle id="Oval-6" fill="#6C9DFD" sketch:type="MSShapeGroup" cx="301" cy="150" r="4"></circle>
        <circle id="Oval-6" fill="#E74C3C" sketch:type="MSShapeGroup" cx="488" cy="220" r="4"></circle>
        <circle id="Oval-6" fill="#E74C3C" sketch:type="MSShapeGroup" cx="488" cy="79" r="4"></circle>
        <circle id="Oval-6" fill="#E74C3C" sketch:type="MSShapeGroup" cx="367" cy="54" r="4"></circle>
        <circle id="Oval-6" fill="#E74C3C" sketch:type="MSShapeGroup" cx="367" cy="246" r="4"></circle>
        <path d="M235,250 C237.209139,250 239,248.209139 239,246 C239,243.790861 237.209139,242 235,242 C232.790861,242 231,243.790861 231,246 C231,248.209139 232.790861,250 235,250 Z" id="Oval-6-copy" fill="#E74C3C" sketch:type="MSShapeGroup"></path>
        <path d="M235,58 C237.209139,58 239,56.2091391 239,54 C239,51.7908609 237.209139,50 235,50 C232.790861,50 231,51.7908609 231,54 C231,56.2091391 232.790861,58 235,58 Z" id="Oval-6-copy" fill="#E74C3C" sketch:type="MSShapeGroup"></path>
        <circle id="Oval-6" fill="#E74C3C" sketch:type="MSShapeGroup" cx="114" cy="79" r="4"></circle>
        <circle id="Oval-6" fill="#E74C3C" sketch:type="MSShapeGroup" cx="114" cy="220" r="4"></circle>
        <path d="M52.5498961,150.582638 C52.5550327,150.389051 52.5576172,150.194827 52.5576172,150 C52.5576172,138.094056 42.9059438,128.442383 31,128.442383 C19.0940562,128.442383 9.44238281,138.094056 9.44238281,150 C9.44238281,150.194827 9.4449673,150.389051 9.45010386,150.582638 L52.5498961,150.582638 Z" id="Oval-11" fill="#6C9DFD" sketch:type="MSShapeGroup" transform="translate(31.000000, 150.000000) rotate(-270.000000) translate(-31.000000, -150.000000) "></path>
        <path d="M590.133881,150.582638 C590.139017,150.389051 590.141602,150.194827 590.141602,150 C590.141602,138.094056 580.489928,128.442383 568.583984,128.442383 C556.678041,128.442383 547.026367,138.094056 547.026367,150 C547.026367,150.194827 547.028952,150.389051 547.034088,150.582638 L590.133881,150.582638 Z" id="Oval-11" fill="#6C9DFD" sketch:type="MSShapeGroup" transform="translate(568.583984, 150.000000) rotate(-90.000000) translate(-568.583984, -150.000000) "></path>
        <path d="M570,10 L570,290" id="Line" stroke="#E74C3C" stroke-width="2" stroke-linecap="square" sketch:type="MSShapeGroup"></path>
        <path d="M30,10 L30,290" id="Line" stroke="#E74C3C" stroke-width="2" stroke-linecap="square" sketch:type="MSShapeGroup"></path>
        <path d="M30.5020689,168 L24.9958621,168 C20.581124,168 17,164.417946 17,159.999259 L17,140.000741 C17,135.583431 20.5798694,132 24.9958621,132 L30.5020689,132 L29,132 L29,168 L30.5020689,168 Z" id="Rectangle-4" fill="#E6E6E6" sketch:type="MSShapeGroup"></path>
        <path d="M573.502069,168 L567.995862,168 C563.581124,168 560,164.417946 560,159.999259 L560,140.000741 C560,135.583431 563.579869,132 567.995862,132 L573.502069,132 L572,132 L572,168 L573.502069,168 Z" id="Rectangle-4" fill="#E6E6E6" sketch:type="MSShapeGroup" transform="translate(571.500000, 150.000000) rotate(-180.000000) translate(-571.500000, -150.000000) "></path>
        <rect id="Rectangle-1" stroke="#C8C8C8" sketch:type="MSShapeGroup" x="0" y="0" width="600" height="300" rx="60"></rect>
    </g>
</svg>