<?xml version="1.0" encoding="UTF-8" standalone="no"?>
<svg width="874px" height="440px" viewBox="0 0 874 440" version="1.1" xmlns="http://www.w3.org/2000/svg" xmlns:xlink="http://www.w3.org/1999/xlink" xmlns:sketch="http://www.bohemiancoding.com/sketch/ns">
    <title>rink@2x</title>
    <description>Created with Sketch (http://www.bohemiancoding.com/sketch)</description>
    <defs></defs>
    <g id="Page 1" stroke="none" stroke-width="1" fill="none" fill-rule="evenodd">
        <g id="Rink" transform="translate(-11.000000, -458.000000)">
            <path d="M131.007602,458 C64.7292335,458 11,511.732515 11,577.995728 L11,778.004272 C11,844.276083 64.7255743,898 131.007602,898 L764.992398,898 C831.270766,898 885,844.267485 885,778.004272 L885,577.995728 C885,511.723917 831.274426,458 764.992398,458 L131.007602,458 Z M131.007602,458" id="Rink Outline" stroke="#A0A0A0" fill="#FFFFFF"></path>
            <path d="M72,474 L72,882" id="Home Goal Line" stroke="#F5847B" stroke-width="2" stroke-linecap="square"></path>
            <path d="M824,474 L824,882" id="Home Goal Line" stroke="#F5847B" stroke-width="2" stroke-linecap="square"></path>
            <path d="M324.5,460.5 L324.5,895.5" id="Home Blue Line" stroke="#66ABD9" stroke-width="5" stroke-linecap="square"></path>
            <path d="M572.5,460.5 L572.5,895.5" id="Away Blue Line" stroke="#66ABD9" stroke-width="5" stroke-linecap="square"></path>
            <g id="Slice 1" transform="translate(398.000000, 628.000000)" fill="#3D9BD7">
                <g id="Page 1">
                    <g id="svg3039">
                        <path d="M46.9729149,99.9468996 C28.7885967,98.8058776 12.8556126,88.0909224 4.91800879,71.6649119 C0.74810941,63.0357603 -0.820617023,53.2741613 0.405494095,43.5852718 C1.20572034,37.261747 3.32581097,30.8962587 6.48186992,25.3411499 C9.91662179,19.2954973 14.561202,14.0518666 20.2284069,9.82160307 C30.3148996,2.29257959 43.0360663,-1.11708664 55.6659756,0.323238141 C57.2489711,0.503764134 60.0247577,0.964986344 60.2392991,1.08313721 C60.3348387,1.13575244 60.1771182,1.20500835 59.7812708,1.2842597 C58.4636315,1.54806022 55.8315192,2.25648895 54.1954301,2.78767971 C48.5721358,4.61339987 43.3623412,7.30702828 38.7698222,10.7632067 C37.605833,11.6391875 37.5933461,11.6453854 36.530573,11.8747191 C29.6285839,13.3640846 23.1173397,16.4957299 17.7005877,20.9311797 C15.5946613,22.6555948 12.8361648,25.5352317 11.1544062,27.7648386 C10.3314234,28.8559146 8.9761391,30.8531883 8.8719631,31.1284514 C8.83550405,31.2247905 9.35277066,30.7926923 10.0214522,30.1682326 C16.0218053,24.5646892 22.3693654,20.7182433 29.4522888,18.3936832 C30.2896459,18.1188697 31.0286776,17.9070147 31.0945806,17.9228962 C31.1604838,17.9387768 30.8518858,18.410422 30.4088055,18.9709955 C29.3892642,20.2608958 28.0182329,22.2814842 27.0757064,23.8832284 C26.1824454,25.4012495 24.524886,28.7998053 23.8107457,30.5775023 C22.5227153,33.7837671 21.4274506,37.6755502 20.8533814,41.0858444 C20.683742,42.0935967 20.5118379,42.9460405 20.4713726,42.9801642 C20.4309084,43.0142878 19.941838,43.3566515 19.3845509,43.7409706 C16.2418736,45.9082418 12.9491786,49.1565435 10.7089086,52.2996428 C9.36051642,54.191437 8.0100354,56.6000657 7.12632585,58.6892837 C6.5261867,60.1081015 5.98377946,61.6429815 6.01857943,61.8239368 C6.03536362,61.9112008 6.24479449,61.6668671 6.49558023,61.2674319 C8.88851321,57.456188 12.3130833,53.6338895 15.9193016,50.7492482 C17.1285532,49.7819591 19.5840538,48.0591168 19.9585306,47.9152206 C20.0942169,47.8630821 20.1210044,48.1974938 20.1725672,50.5872455 C20.3188125,57.3651314 21.6712479,63.4552966 24.3810621,69.5385574 L24.8413245,70.5718006 L24.1841629,71.5260456 C22.4471946,74.0482496 21.0364909,77.0313531 20.2055482,79.9393101 C19.6321651,81.9459153 19.65772,81.9742748 20.5560742,80.3283219 C21.4572733,78.6771586 22.0834723,77.6601515 23.0349517,76.3023843 C24.026138,74.8879552 25.8804125,72.6327697 25.9680689,72.7350979 C25.9920787,72.7631265 26.2327054,73.1759125 26.5027945,73.6524001 C29.5729579,79.0687473 34.2864432,84.2144561 39.5095358,87.8518501 C40.7680509,88.7282873 43.0330892,90.1502465 43.1843016,90.1588164 C43.2330622,90.1615786 42.5887284,89.459734 41.7524482,88.599161 C39.0254294,85.7929247 37.0616007,83.3821115 35.0566014,80.3792826 C32.9277248,77.190928 31.3079699,74.1540451 30.0080847,70.9138095 L29.4159947,69.4378979 L29.9960997,68.9822391 C31.6568755,67.6777396 34.4756781,66.0203967 36.530573,65.1402299 C38.0584137,64.4858153 41.2763829,63.4601532 41.8017392,63.4601532 C41.8535392,63.4601532 41.9274893,63.8844055 41.9660736,64.402936 C42.4239187,70.555866 44.822802,77.1427004 48.4712688,82.2648486 C49.575978,83.8157701 52.0660934,86.7131366 51.8875264,86.239825 C51.8663768,86.1837677 51.3876782,85.2206005 50.8237507,84.099453 C48.5218687,79.5230707 47.0887054,74.9258846 46.4548086,70.0851136 C46.2331117,68.3921203 46.0530719,64.6803833 46.1421136,63.6385175 L46.2183327,62.7466959 L48.2849836,62.7466959 C51.9906489,62.7466959 54.7284223,63.1777158 58.1087929,64.2933011 C59.3028613,64.687366 61.6260428,65.6335672 61.8012274,65.7971803 C61.844733,65.8378128 61.7458935,66.3949668 61.5815825,67.0353019 C60.3676824,71.7660058 60.3621556,76.7374892 61.5655698,81.4399679 C61.782092,82.2860534 62.1033164,83.3681594 62.2794017,83.8446468 C62.7233685,85.0460213 63.5252193,86.9143941 63.5753184,86.8642261 C63.598121,86.8413925 63.5254951,86.3475731 63.4139255,85.7668494 C62.3653645,80.3090095 62.7311133,74.4044197 64.4183927,69.5508697 C64.9674494,67.9714791 65.0619,67.7408968 65.1597928,67.7408968 C65.2993876,67.7408968 66.3803363,68.5049913 67.4661676,69.371214 C73.1551432,73.9095963 77.0333224,80.4475377 78.5605547,88.0744294 C78.7289305,88.9152897 78.8966871,89.8620998 78.9333469,90.1784506 L79,90.7536335 L77.5368399,91.7219106 C70.5459109,96.3483031 62.7757385,99.0640268 54.2918908,99.8461594 C52.6801514,99.994752 48.6250329,100.050565 46.9729149,99.9468996 L46.9729149,99.9468996 L46.9729149,99.9468996 Z M80.0228426,88.9938701 C80.101996,87.8681786 79.9476851,85.2168006 79.7132,83.6735838 C78.7423373,77.2840068 75.6950292,71.3255046 71.0497373,66.7336258 C70.1234484,65.8179889 68.8231482,64.7113958 67.3424649,63.5786332 L67,63.316638 L67.7478204,62.2148465 C69.2972978,59.9319445 71.4899329,57.5292367 73.5995986,55.8024199 L74.5799223,55 L75.3742822,55.8514448 C82.3989116,63.3808807 86.2635639,72.3898804 86.9297928,82.7888156 L87,83.8846497 L85.7078506,85.1648502 C83.8961542,86.959795 80.3253518,90 80.0288394,90 C79.9866305,90 79.9839333,89.5472416 80.0228466,88.9938701 L80.0228426,88.9938701 L80.0228426,88.9938701 Z M87.3977959,82.6106467 C87.8058562,80.0163316 87.9519274,76.5036592 87.7524955,74.0809829 C87.1572056,66.8494816 84.5124893,60.0166776 79.9286468,53.8675394 L79,52.6217765 L80.1052962,52.05404 C82.6858335,50.7285425 85.5660528,49.7343297 88.4742108,49.1652049 C89.0663871,49.0493164 89.5876836,48.9777849 89.6326481,49.0062467 C89.76025,49.0870174 90.7911045,52.3706985 91.2256201,54.0804992 C92.8997638,60.668175 93.3844668,67.3938788 92.6999326,74.5379615 L92.5843079,75.7446688 L91.844645,76.9297038 C90.6801143,78.7954315 88.764837,81.4145275 87.7032981,82.5928947 L87.3365547,83 L87.3977959,82.6106467 L87.3977959,82.6106467 Z M95.0001465,72.9881484 C94.9956922,72.9226929 95.0933679,72.3505293 95.2172036,71.7166739 C96.6493965,64.3858995 96.6173415,56.8765115 95.1213172,49.2542949 L95.0714058,49 L96.0230608,49.0284638 C96.9606808,49.0565084 99.3461314,49.3099042 99.7783971,49.4273772 L100,49.4876003 L99.938075,51.6132038 C99.7585057,57.7769932 98.7469707,63.2696923 96.7810843,68.755851 C96.1777543,70.4395518 95.0147844,73.203285 95.0001465,72.9881484 L95.0001465,72.9881484 L95.0001465,72.9881484 Z M27.959701,65.7756002 C26.4533821,60.5186555 25.8000756,55.1979452 26.0531383,50.2480594 C26.1717501,47.9280291 26.5305428,44.6506302 26.6805256,44.5171801 C26.7761541,44.4320927 29.6773182,43.551797 30.6567285,43.3106868 C34.933202,42.2579104 39.3349117,41.8338385 43.6547682,42.0584219 C44.9203946,42.1242209 45.9749988,42.1966631 45.9983331,42.2194054 C46.0216665,42.2421475 45.7972489,42.7662688 45.4996285,43.3841175 C44.3681603,45.7329995 43.4989508,48.0820043 42.8390024,50.5743497 C42.1521995,53.1681099 41.8607075,54.9055303 41.5553134,58.2256688 L41.495237,58.8787991 L40.2476875,59.2545472 C36.0331916,60.5239084 32.077497,62.6658429 28.7953876,65.4557515 C28.4432409,65.755088 28.1256179,66 28.0895584,66 C28.0534988,66 27.9950606,65.8990201 27.9596969,65.7756002 L27.959701,65.7756002 L27.959701,65.7756002 Z M63.0146899,60.6534847 C61.2005483,59.7398923 58.245245,58.7824845 55.783305,58.310786 C53.5222025,57.8775667 52.2573248,57.7662048 49.5788192,57.7645335 C47.6794856,57.7633513 47,57.7320507 47,57.6457526 C47,57.3898656 47.5332365,54.9807545 47.8285996,53.9022192 C48.231068,52.4325838 49.1324036,49.8596559 49.7220504,48.4972255 C50.6264683,46.4074921 52.3953524,43.112362 52.6677962,43.0098018 C52.9984571,42.885327 56.6310696,43.9696803 59.1297841,44.9387383 C63.0355043,46.4534656 66.6120712,48.4047635 69.9025322,50.8161199 L71,51.6203793 L69.7420111,52.8860937 C67.6082359,55.0329719 65.9263923,57.272873 64.56661,59.7787623 C64.2014901,60.4516266 63.8567964,61.0011834 63.8006242,60.9999981 C63.7444518,60.9988159 63.3907818,60.8428821 63.0146899,60.6534847 L63.0146899,60.6534847 L63.0146899,60.6534847 Z M74.6277742,48.4753235 C72.83482,46.8289697 69.2668742,44.2850058 66.7508526,42.8590381 C64.1142317,41.3647191 60.8765327,39.9698254 57.7413017,38.9774637 C56.8068825,38.6817016 56.0245909,38.4257558 56.0028764,38.4086948 C55.9159594,38.3404058 57.816152,36.2855375 59.3535551,34.7852728 C62.0493199,32.1546255 64.3322649,30.3914396 67.6260661,28.3961682 C68.8259416,27.6693247 72.1193412,25.9985419 72.3493247,26.000001 C72.7357655,26.0024549 76.0261914,28.7401491 78.0771452,30.7656591 C81.842024,34.4838308 84.8742981,38.546325 87.4405096,43.3102409 C87.767914,43.9180356 88.0191678,44.4300939 87.9988494,44.4481488 C87.9785326,44.4662036 87.4985611,44.5578163 86.9322466,44.6517326 C83.3137167,45.251821 79.568062,46.6101192 76.1621512,48.557327 C75.7318499,48.8033365 75.3380038,49.0025279 75.2869377,48.9999757 C75.2358705,48.9974196 74.9392472,48.7613292 74.6277742,48.4753235 L74.6277742,48.4753235 L74.6277742,48.4753235 Z M99.8092597,44.9342092 C99.7087687,44.8324395 96.6607828,44.265281 95.6472855,44.1597637 C95.0592141,44.0985383 94.3435882,44.0238538 94.0570078,43.9937985 L93.5359506,43.9391516 L93.1546823,42.8878063 C91.1955239,37.4854308 88.3207136,32.4495815 84.6656641,28.0174637 C84.2446861,27.5069857 83.0140076,26.1891586 81.9308217,25.088958 C80.8476366,23.9887584 79.9789409,23.0708232 80.0003888,23.0491037 C80.0783009,22.9701992 82.6075473,22.503083 83.7916226,22.3489166 C86.3236406,22.0192469 89.2154823,21.9119599 91.1649356,22.0753665 L91.9268611,22.1392329 L92.6650635,23.3241244 C96.1240879,28.8762071 98.5405075,35.2992508 99.6102103,41.7848987 C100.064933,44.5419012 100.108909,45.2376724 99.8092597,44.9342092 L99.8092597,44.9342092 L99.8092597,44.9342092 Z M28.0313036,38.6800633 C28.0706853,38.4968289 28.3232423,37.663936 28.592541,36.8291897 C30.9677142,29.4668629 35.1642239,22.4649139 40.3389503,17.2301051 L41.5549369,16 L43.8400007,16.0161779 C49.394372,16.0555033 54.8923123,17.1491037 60.2524248,19.2807877 C61.8659231,19.9224669 63.9999288,20.9119072 65.1623621,21.5572993 L66,22.0223631 L64.6693786,22.733454 C59.2374699,25.636294 54.522104,29.6107576 50.6525788,34.5478614 C50.1250009,35.2209954 49.5465754,35.9923789 49.3671892,36.2620477 C49.0758357,36.7000348 49.0088438,36.7469377 48.7393803,36.701592 C46.9524673,36.4008896 42.2571834,36.2622691 39.9412023,36.4418388 C37.8312041,36.6054377 35.796829,36.9019782 33.8098696,37.3355717 C32.2403178,37.6780791 29.303115,38.5229779 28.5151612,38.8586182 C28.0001883,39.0779777 27.9497813,39.0593755 28.0313036,38.6800633 L28.0313036,38.6800633 L28.0313036,38.6800633 Z M73.9683683,18.40048 C66.8333985,13.9010627 58.0211674,11.018485 50.1097309,10.5960577 C49.1160379,10.5429996 48.9172373,10.5069483 49.0270006,10.399714 C49.6921791,9.74986033 55.3164152,6.83809443 57.6962219,5.91150478 C60.5712983,4.79207998 63.8550905,3.84691935 66.8920221,3.26471539 L68.2728514,3 L69.1581961,3.35188067 C74.6375385,5.52965241 80.1835674,9.062384 84.5934478,13.1838912 C86.3716513,14.8458139 89.1111975,17.7514687 88.9965123,17.8539292 C88.974289,17.8737838 88.5396497,17.8530102 88.0306486,17.8077085 C84.7197068,17.5131991 80.0644078,17.8588745 76.4015307,18.6712199 L74.9190584,19 L73.9683683,18.40048 L73.9683683,18.40048 Z M73.9683683,18.40048" id="path3068"></path>
                    </g>
                </g>
            </g>
            <path d="M443,625 L443,730 L454,730 L454,625 L443,625 Z M443,625" id="Logo Cover" fill="#FFFFFF"></path>
            <path d="M448.5,460.5 L448.5,895.5" id="Center Line" stroke="#F5847B" stroke-width="5" stroke-linecap="square"></path>
            <path d="M448,742 C483.346226,742 512,713.346226 512,678 C512,642.653774 483.346226,614 448,614 C412.653774,614 384,642.653774 384,678 C384,713.346226 412.653774,742 448,742 Z M448,742" id="Center" stroke="#66ABD9" stroke-width="2"></path>
            <path d="M341,783 C343.761424,783 346,780.761424 346,778 C346,775.238576 343.761424,773 341,773 C338.238576,773 336,775.238576 336,778 C336,780.761424 338.238576,783 341,783 Z M341,783" id="Bottom Left Offside" fill="#F5847B"></path>
            <path d="M341,588 C343.761424,588 346,585.761424 346,583 C346,580.238576 343.761424,578 341,578 C338.238576,578 336,580.238576 336,583 C336,585.761424 338.238576,588 341,588 Z M341,588" id="Top Left Offside" fill="#F5847B"></path>
            <path d="M556,588 C558.761424,588 561,585.761424 561,583 C561,580.238576 558.761424,578 556,578 C553.238576,578 551,580.238576 551,583 C551,585.761424 553.238576,588 556,588 Z M556,588" id="Top Right Offside" fill="#F5847B"></path>
            <path d="M556,783 C558.761424,783 561,780.761424 561,778 C561,775.238576 558.761424,773 556,773 C553.238576,773 551,775.238576 551,778 C551,780.761424 553.238576,783 556,783 Z M556,783" id="Bottom Right Offside" fill="#F5847B"></path>
            <path d="M448,501 C424.804039,501 406,481.972103 406,458.5 C406,458.333189 406.00095,458.166602 406.002847,458 L489.997153,458 C489.99905,458.166602 490,458.333189 490,458.5 C490,481.972103 471.195961,501 448,501 Z M448,501" id="Referee Circle" stroke="#F5847B" stroke-width="2"></path>
            <g id="Home Net" transform="translate(43.000000, 649.000000)" stroke="#F5847B">
                <path d="M7.99527533,4 C3.57960669,4 0,7.58323463 0,12.009101 L0,44.990899 C0,49.4142033 3.58789109,53 7.99527533,53 L18.0047247,53 C22.4203933,53 26,49.4167654 26,44.990899 L26,12.009101 C26,7.58579666 22.4121089,4 18.0047247,4 L7.99527533,4 Z M7.99527533,4" id="Home Behind Net" stroke-opacity="0.3" fill="#FAFAFA"></path>
                <path d="M16.9952753,4 C12.5796067,4 9,7.58323463 9,12.009101 L9,44.990899 C9,49.4142033 12.5878911,53 16.9952753,53 L27.0047247,53 C31.4203933,53 35,49.4167654 35,44.990899 L35,12.009101 C35,7.58579666 31.4121089,4 27.0047247,4 L16.9952753,4 Z M16.9952753,4" stroke-width="2" fill="#FFFFFF"></path>
                <path d="M29.6158128,55.0594006 C15.275441,55.0594006 3.65027395,43.4342336 3.65027395,29.0938617 C3.65027395,28.9516856 3.65141665,28.8097763 3.65369248,28.6681971 L55.5779331,28.6681971 C55.580209,28.8097763 55.5813517,28.9516856 55.5813517,29.0938617 C55.5813517,43.4342336 43.9561846,55.0594006 29.6158128,55.0594006 Z M29.6158128,55.0594006" id="Home Crease" stroke-width="2" fill="#CDDEF1" transform="translate(29.615813, 28.668197) rotate(-90.000000) translate(-29.615813, -28.668197) "></path>
            </g>
            <g id="Away Net" transform="translate(824.759766, 678.074219) rotate(-180.000000) translate(-824.759766, -678.074219) translate(796.259766, 649.574219)" stroke="#F5847B">
                <path d="M7.99527533,4 C3.57960669,4 0,7.58323463 0,12.009101 L0,44.990899 C0,49.4142033 3.58789109,53 7.99527533,53 L18.0047247,53 C22.4203933,53 26,49.4167654 26,44.990899 L26,12.009101 C26,7.58579666 22.4121089,4 18.0047247,4 L7.99527533,4 Z M7.99527533,4" id="Home Behind Net" stroke-opacity="0.3" fill="#FAFAFA"></path>
                <path d="M16.9952753,4 C12.5796067,4 9,7.58323463 9,12.009101 L9,44.990899 C9,49.4142033 12.5878911,53 16.9952753,53 L27.0047247,53 C31.4203933,53 35,49.4167654 35,44.990899 L35,12.009101 C35,7.58579666 31.4121089,4 27.0047247,4 L16.9952753,4 Z M16.9952753,4" id="Home Net" stroke-width="2" fill="#FFFFFF"></path>
                <path d="M29.6158128,55.0594006 C15.275441,55.0594006 3.65027395,43.4342336 3.65027395,29.0938617 C3.65027395,28.9516856 3.65141665,28.8097763 3.65369248,28.6681971 L55.5779331,28.6681971 C55.580209,28.8097763 55.5813517,28.9516856 55.5813517,29.0938617 C55.5813517,43.4342336 43.9561846,55.0594006 29.6158128,55.0594006 Z M29.6158128,55.0594006" id="Home Crease" stroke-width="2" fill="#CDDEF1" transform="translate(29.615813, 28.668197) rotate(-90.000000) translate(-29.615813, -28.668197) "></path>
            </g>
            <g id="Home Faceoff Circles" transform="translate(95.000000, 506.000000)">
                <g id="Left Faceoff Circle">
                    <path d="M66,143 C102.450795,143 132,113.450795 132,77 C132,40.5492047 102.450795,11 66,11 C29.5492047,11 0,40.5492047 0,77 C0,113.450795 29.5492047,143 66,143 Z M66,143" id="Left Circle" stroke="#F5847B" stroke-width="2"></path>
                    <path d="M51,0.5 L51,11.9017544" id="Up" stroke="#F5847B" stroke-width="2" stroke-linecap="square"></path>
                    <path d="M81,0.5 L81,11.9017544" id="Up" stroke="#F5847B" stroke-width="2" stroke-linecap="square"></path>
                    <path d="M81,142.5 L81,153.901754" id="Up" stroke="#F5847B" stroke-width="2" stroke-linecap="square"></path>
                    <path d="M51,142.5 L51,153.901754" id="Up" stroke="#F5847B" stroke-width="2" stroke-linecap="square"></path>
                    <path d="M57,83 L57,98.9017544" id="Up" stroke="#F5847B" stroke-width="2" stroke-linecap="square"></path>
                    <path d="M76,83 L76,98.9017544" id="Up" stroke="#F5847B" stroke-width="2" stroke-linecap="square"></path>
                    <path d="M76,55 L76,70.9017544" id="Up" stroke="#F5847B" stroke-width="2" stroke-linecap="square"></path>
                    <path d="M57,55 L57,70.9017544" id="Up" stroke="#F5847B" stroke-width="2" stroke-linecap="square"></path>
                    <path d="M27,72 L57,72" id="Line" stroke="#F5847B" stroke-width="2" stroke-linecap="square"></path>
                    <path d="M27,82 L57,82" id="Line" stroke="#F5847B" stroke-width="2" stroke-linecap="square"></path>
                    <path d="M76,82 L106,82" id="Line" stroke="#F5847B" stroke-width="2" stroke-linecap="square"></path>
                    <path d="M76,71 L106,71" id="Line" stroke="#F5847B" stroke-width="2" stroke-linecap="square"></path>
                    <path d="M66,82 C68.7614239,82 71,79.7614239 71,77 C71,74.2385761 68.7614239,72 66,72 C63.2385761,72 61,74.2385761 61,77 C61,79.7614239 63.2385761,82 66,82 Z M66,82" id="Faceoff Dot" fill="#F5847B"></path>
                </g>
                <g id="Right Faceoff Circle" transform="translate(0.000000, 194.000000)">
                    <path d="M66,143 C102.450795,143 132,113.450795 132,77 C132,40.5492047 102.450795,11 66,11 C29.5492047,11 0,40.5492047 0,77 C0,113.450795 29.5492047,143 66,143 Z M66,143" id="Left Circle" stroke="#F5847B" stroke-width="2"></path>
                    <path d="M51,0.5 L51,11.9017544" id="Up" stroke="#F5847B" stroke-width="2" stroke-linecap="square"></path>
                    <path d="M81,0.5 L81,11.9017544" id="Up" stroke="#F5847B" stroke-width="2" stroke-linecap="square"></path>
                    <path d="M81,142.5 L81,153.901754" id="Up" stroke="#F5847B" stroke-width="2" stroke-linecap="square"></path>
                    <path d="M51,142.5 L51,153.901754" id="Up" stroke="#F5847B" stroke-width="2" stroke-linecap="square"></path>
                    <path d="M57,83 L57,98.9017544" id="Up" stroke="#F5847B" stroke-width="2" stroke-linecap="square"></path>
                    <path d="M76,83 L76,98.9017544" id="Up" stroke="#F5847B" stroke-width="2" stroke-linecap="square"></path>
                    <path d="M76,55 L76,70.9017544" id="Up" stroke="#F5847B" stroke-width="2" stroke-linecap="square"></path>
                    <path d="M57,55 L57,70.9017544" id="Up" stroke="#F5847B" stroke-width="2" stroke-linecap="square"></path>
                    <path d="M27,72 L57,72" id="Line" stroke="#F5847B" stroke-width="2" stroke-linecap="square"></path>
                    <path d="M27,82 L57,82" id="Line" stroke="#F5847B" stroke-width="2" stroke-linecap="square"></path>
                    <path d="M76,82 L106,82" id="Line" stroke="#F5847B" stroke-width="2" stroke-linecap="square"></path>
                    <path d="M76,71 L106,71" id="Line" stroke="#F5847B" stroke-width="2" stroke-linecap="square"></path>
                    <path d="M66,82 C68.7614239,82 71,79.7614239 71,77 C71,74.2385761 68.7614239,72 66,72 C63.2385761,72 61,74.2385761 61,77 C61,79.7614239 63.2385761,82 66,82 Z M66,82" id="Faceoff Dot" fill="#F5847B"></path>
                </g>
            </g>
            <g id="Away Faceoff Circles" transform="translate(735.210938, 679.632812) rotate(-180.000000) translate(-735.210938, -679.632812) translate(669.210938, 505.132812)">
                <g id="Left Faceoff Circle">
                    <path d="M66,143 C102.450795,143 132,113.450795 132,77 C132,40.5492047 102.450795,11 66,11 C29.5492047,11 0,40.5492047 0,77 C0,113.450795 29.5492047,143 66,143 Z M66,143" id="Left Circle" stroke="#F5847B" stroke-width="2"></path>
                    <path d="M51,0.5 L51,11.9017544" id="Up" stroke="#F5847B" stroke-width="2" stroke-linecap="square"></path>
                    <path d="M81,0.5 L81,11.9017544" id="Up" stroke="#F5847B" stroke-width="2" stroke-linecap="square"></path>
                    <path d="M81,142.5 L81,153.901754" id="Up" stroke="#F5847B" stroke-width="2" stroke-linecap="square"></path>
                    <path d="M51,142.5 L51,153.901754" id="Up" stroke="#F5847B" stroke-width="2" stroke-linecap="square"></path>
                    <path d="M57,83 L57,98.9017544" id="Up" stroke="#F5847B" stroke-width="2" stroke-linecap="square"></path>
                    <path d="M76,83 L76,98.9017544" id="Up" stroke="#F5847B" stroke-width="2" stroke-linecap="square"></path>
                    <path d="M76,55 L76,70.9017544" id="Up" stroke="#F5847B" stroke-width="2" stroke-linecap="square"></path>
                    <path d="M57,55 L57,70.9017544" id="Up" stroke="#F5847B" stroke-width="2" stroke-linecap="square"></path>
                    <path d="M27,72 L57,72" id="Line" stroke="#F5847B" stroke-width="2" stroke-linecap="square"></path>
                    <path d="M27,82 L57,82" id="Line" stroke="#F5847B" stroke-width="2" stroke-linecap="square"></path>
                    <path d="M76,82 L106,82" id="Line" stroke="#F5847B" stroke-width="2" stroke-linecap="square"></path>
                    <path d="M76,72 L106,72" id="Line" stroke="#F5847B" stroke-width="2" stroke-linecap="square"></path>
                    <path d="M66,82 C68.7614239,82 71,79.7614239 71,77 C71,74.2385761 68.7614239,72 66,72 C63.2385761,72 61,74.2385761 61,77 C61,79.7614239 63.2385761,82 66,82 Z M66,82" id="Faceoff Dot" fill="#F5847B"></path>
                </g>
                <g id="Right Faceoff Circle" transform="translate(0.000000, 194.000000)">
                    <path d="M66,143 C102.450795,143 132,113.450795 132,77 C132,40.5492047 102.450795,11 66,11 C29.5492047,11 0,40.5492047 0,77 C0,113.450795 29.5492047,143 66,143 Z M66,143" id="Left Circle" stroke="#F5847B" stroke-width="2"></path>
                    <path d="M51,0.5 L51,11.9017544" id="Up" stroke="#F5847B" stroke-width="2" stroke-linecap="square"></path>
                    <path d="M81,0.5 L81,11.9017544" id="Up" stroke="#F5847B" stroke-width="2" stroke-linecap="square"></path>
                    <path d="M81,142.5 L81,153.901754" id="Up" stroke="#F5847B" stroke-width="2" stroke-linecap="square"></path>
                    <path d="M51,142.5 L51,153.901754" id="Up" stroke="#F5847B" stroke-width="2" stroke-linecap="square"></path>
                    <path d="M57,83 L57,98.9017544" id="Up" stroke="#F5847B" stroke-width="2" stroke-linecap="square"></path>
                    <path d="M76,83 L76,98.9017544" id="Up" stroke="#F5847B" stroke-width="2" stroke-linecap="square"></path>
                    <path d="M76,55 L76,70.9017544" id="Up" stroke="#F5847B" stroke-width="2" stroke-linecap="square"></path>
                    <path d="M57,55 L57,70.9017544" id="Up" stroke="#F5847B" stroke-width="2" stroke-linecap="square"></path>
                    <path d="M27,72 L57,72" id="Line" stroke="#F5847B" stroke-width="2" stroke-linecap="square"></path>
                    <path d="M27,82 L57,82" id="Line" stroke="#F5847B" stroke-width="2" stroke-linecap="square"></path>
                    <path d="M76,82 L106,82" id="Line" stroke="#F5847B" stroke-width="2" stroke-linecap="square"></path>
                    <path d="M76,71 L106,71" id="Line" stroke="#F5847B" stroke-width="2" stroke-linecap="square"></path>
                    <path d="M66,82 C68.7614239,82 71,79.7614239 71,77 C71,74.2385761 68.7614239,72 66,72 C63.2385761,72 61,74.2385761 61,77 C61,79.7614239 63.2385761,82 66,82 Z M66,82" id="Faceoff Dot" fill="#F5847B"></path>
                </g>
            </g>
            <path d="M445,673 L445,683 L452,683 L452,673 L445,673 Z M445,673" id="Center Dot" fill="#FFFFFF"></path>
            <path d="M448.710938,680.34375 C450.091649,680.34375 451.210938,679.224462 451.210938,677.84375 C451.210938,676.463038 450.091649,675.34375 448.710938,675.34375 C447.330226,675.34375 446.210938,676.463038 446.210938,677.84375 C446.210938,679.224462 447.330226,680.34375 448.710938,680.34375 Z M448.710938,680.34375" id="Faceoff Dot" fill="#66ABD9"></path>
            <path d="M131.007602,458 C64.7292335,458 11,511.732515 11,577.995728 L11,778.004272 C11,844.276083 64.7255743,898 131.007602,898 L764.992398,898 C831.270766,898 885,844.267485 885,778.004272 L885,577.995728 C885,511.723917 831.274426,458 764.992398,458 L131.007602,458 Z M131.007602,458" id="Rink Outline Cover" stroke="#A0A0A0" stroke-width="2" fill-opacity="0" fill="#FFFFFF"></path>
        </g>
    </g>
</svg>